<?xml version="1.0" encoding="UTF-8" standalone="no"?>
<!-- Created with Inkscape (http://www.inkscape.org/) -->

<svg
   width="128"
   height="128"
   viewBox="0 0 128 128"
   version="1.1"
   id="svg1"
   xmlns="http://www.w3.org/2000/svg"
   xmlns:svg="http://www.w3.org/2000/svg">
  <defs
     id="defs1" />
  <path
     d="m 100.918,77.117008 q 11.92937,0 18.70818,6.845265 6.81203,6.845266 6.81203,17.146397 0,11.56384 -8.63965,16.84732 H 128 v 9.66977 h -22.76217 v -10.36758 q 1.26272,-0.69782 2.22637,-1.66148 5.7487,-5.81515 5.7487,-14.18897 0,-6.380052 -3.22326,-10.69988 -3.22326,-4.319827 -9.07164,-4.319827 -5.848381,0 -9.071637,4.319827 -3.223256,4.319828 -3.223256,10.69988 0,8.37382 5.748694,14.18897 0.963654,0.96366 2.226372,1.66148 v 10.36758 H 73.836004 v -9.66977 h 10.201439 q -8.639655,-5.28348 -8.639655,-16.84732 0,-10.301131 6.778807,-17.146397 6.812036,-6.845265 18.741405,-6.845265 z"
     id="text1"
     style="font-weight:bold;font-size:68.0539px;font-family:'DejaVu Sans';-inkscape-font-specification:'DejaVu Sans, Bold';fill:#d4d4d4;stroke-width:1.28285"
     aria-label="Ω" />
  <path
     d="m 26.108644,27.713895 q -4.961676,4.815744 -7.296582,10.725976 -2.407873,5.910231 -2.407873,12.696053 0,6.566924 2.407873,12.477156 2.407872,5.910231 7.223616,10.725976 4.377949,4.304983 10.65301,7.15065 5.399471,2.407873 12.331224,2.407873 6.931754,0 12.623088,-2.407873 5.983197,-2.553803 10.65301,-7.15065 4.815744,-4.815745 7.223616,-10.725976 2.407873,-5.910232 2.407873,-12.477156 0,-6.785822 -2.407873,-12.696053 -2.480838,-5.910232 -7.296582,-10.725976 L 69.66924,25.160091 V 49.238813 H 57.26505 V 8.6698149 L 61.934863,4.0000023 H 102.50386 V 16.404192 H 78.425139 l 2.553804,2.553804 q 6.566924,6.566924 9.996318,14.739096 3.356428,8.172172 3.356428,17.438832 0,9.047762 -3.356428,17.219934 -3.50236,8.245138 -9.996318,14.739097 -6.129129,6.056163 -14.593165,9.850386 -7.515479,3.356428 -17.219934,3.356428 -9.339625,0 -17.219934,-3.356428 Q 23.773738,89.442981 17.352745,83.094955 10.858787,76.600996 7.3564274,68.355858 3.9999995,60.183686 3.9999995,51.135924 q 0,-9.26666 3.3564279,-17.438832 3.2834616,-7.807343 9.9963176,-14.739096 z"
     id="text2"
     style="font-size:149.434px;font-family:'DejaVu Sans';-inkscape-font-specification:'DejaVu Sans, Normal';fill:#d4d4d4;stroke-width:2.81689"
     aria-label="↺" />
</svg>
